<!DOCTYPE svg PUBLIC "-//W3C//DTD SVG 20010904//EN" "http://www.w3.org/TR/2001/REC-SVG-20010904/DTD/svg10.dtd">
<svg version="1.0" xmlns="http://www.w3.org/2000/svg" width="620px" height="264px" viewBox="0 0 6200 2640" preserveAspectRatio="xMidYMid meet">
<g id="layerbg1" fill="#f70808" stroke="none">
 <path d="M2381 2563 c-38 -31 -42 -87 -77 -1013 -19 -528 -51 -1096 -61 -1087 -3 4 -17 428 -39 1182 -7 233 -8 240 -31 262 -31 32 -58 17 -84 -45 -31 -73 -34 -76 -76 -85 -54 -10 -77 -39 -97 -122 -24 -101 -31 -107 -49 -44 -9 30 -19 72 -23 94 -3 22 -16 50 -27 63 -20 22 -24 22 -258 22 -131 0 -249 -4 -263 -10 -14 -5 -40 -33 -59 -63 -45 -70 -80 -97 -127 -97 -48 0 -92 30 -149 104 -25 32 -53 63 -61 67 -8 5 -47 13 -86 19 l-72 11 -6 92 c-16 217 -38 438 -52 522 -17 101 -40 138 -84 133 -60 -7 -73 -107 -90 -673 -16 -560 -48 -1206 -69 -1405 -8 -71 -8 -72 -10 -22 -11 442 -42 1393 -46 1410 -3 12 -17 28 -30 34 -33 15 -59 -8 -80 -73 -17 -50 -37 -69 -74 -69 -40 0 -70 -41 -92 -125 -11 -44 -23 -82 -25 -85 -10 -9 -22 23 -39 101 -9 43 -23 83 -31 90 -12 10 -14 -7 -14 -120 0 -133 6 -163 39 -188 52 -40 117 13 151 123 11 36 20 72 20 80 0 15 21 28 61 37 l25 6 18 -632 c26 -926 28 -950 91 -979 57 -26 92 37 114 203 33 248 91 1289 91 1639 0 77 4 140 9 140 5 0 12 -63 16 -140 10 -178 12 -182 127 -201 l83 -13 68 -73 c80 -84 132 -113 204 -113 38 0 59 6 90 28 42 29 92 82 112 120 12 22 14 22 220 22 l208 0 12 -57 c28 -126 86 -211 135 -198 48 14 107 116 123 212 5 26 11 32 40 38 19 3 37 4 40 2 2 -3 11 -211 18 -463 36 -1132 32 -1081 76 -1125 26 -26 67 -21 90 11 54 72 100 659 132 1660 l12 375 14 -179 c8 -121 17 -186 27 -202 12 -17 34 -25 109 -39 91 -16 94 -18 121 -57 45 -64 112 -117 170 -134 78 -22 124 -7 195 65 31 31 61 64 66 75 9 16 26 19 124 23 63 2 195 0 294 -4 l180 -8 -120 -82 c-228 -156 -379 -293 -424 -385 -51 -106 -64 -394 -25 -548 37 -146 113 -240 216 -271 47 -14 194 -13 253 1 72 18 156 65 205 115 l43 44 56 -51 c103 -94 220 -133 375 -126 108 5 151 24 215 93 83 90 121 225 121 427 0 244 -26 318 -159 449 -81 80 -270 229 -377 296 -24 15 -44 31 -44 36 0 4 272 7 605 7 l604 0 11 -42 c37 -142 78 -208 130 -208 50 0 99 73 130 197 9 35 16 44 38 49 15 3 33 7 40 10 8 2 12 -10 12 -39 0 -190 43 -1434 51 -1476 11 -56 44 -101 74 -101 25 0 63 44 74 86 34 127 63 503 96 1239 8 182 15 386 16 455 1 69 4 152 8 185 5 53 8 41 17 -98 15 -198 16 -200 121 -216 43 -7 86 -15 96 -17 15 -5 17 2 17 45 0 55 0 55 -81 66 l-46 7 -7 111 c-19 298 -50 553 -73 599 -28 56 -95 44 -112 -20 -16 -60 -30 -292 -41 -677 -16 -554 -49 -1214 -70 -1370 -7 -56 -8 -53 -9 45 -1 58 -10 390 -21 739 -17 561 -22 636 -36 653 -36 39 -69 16 -100 -70 -17 -49 -21 -53 -56 -59 -63 -10 -82 -32 -107 -127 -13 -47 -26 -86 -31 -86 -8 0 -40 117 -40 148 0 11 -9 31 -21 46 l-20 26 -664 0 -664 0 -20 -26 c-21 -26 -28 -93 -15 -128 3 -9 56 -50 118 -92 228 -157 377 -287 416 -365 48 -92 54 -393 11 -519 -51 -150 -103 -185 -260 -178 -150 6 -238 56 -324 182 -12 18 -27 26 -47 26 -24 0 -37 -10 -71 -56 -86 -116 -245 -172 -401 -141 -71 15 -124 81 -155 192 -31 115 -26 369 11 475 29 83 169 211 406 370 65 44 125 89 134 102 24 35 21 104 -7 132 -22 22 -30 23 -275 29 -229 6 -358 4 -419 -9 -14 -2 -38 -27 -60 -61 -90 -135 -168 -132 -276 12 -32 44 -55 65 -74 69 -16 3 -53 10 -85 16 l-56 11 -6 57 c-3 31 -8 95 -11 142 -10 134 -34 368 -46 437 -16 93 -62 133 -108 96z"/>
 </g>
<g id="layerbg2" fill="#ffffff" stroke="none">
 <path d="M0 2195 c0 -245 4 -453 9 -463 5 -9 14 -45 20 -79 6 -34 18 -78 27 -98 12 -30 17 -35 29 -25 14 12 55 132 55 162 0 28 25 48 75 61 49 12 50 13 76 77 26 65 46 83 67 58 7 -9 18 -266 33 -773 12 -418 26 -764 31 -769 19 -22 28 18 42 189 27 317 49 777 66 1365 11 377 24 565 41 618 8 24 16 32 34 32 12 0 27 -6 33 -13 22 -26 51 -264 78 -624 4 -52 12 -97 19 -103 6 -5 47 -15 89 -22 72 -11 80 -15 104 -47 105 -145 183 -176 263 -104 22 20 51 56 65 79 19 33 33 45 57 49 18 3 135 5 261 3 191 -3 230 -5 237 -18 4 -8 15 -49 24 -90 10 -41 24 -88 32 -104 13 -24 17 -26 28 -15 8 8 24 52 36 99 12 47 27 91 32 97 5 7 25 15 46 19 57 10 67 19 90 83 23 62 42 79 64 56 15 -14 13 19 42 -985 9 -305 18 -561 21 -569 4 -13 7 -13 18 0 23 23 54 495 80 1209 33 874 41 984 68 1001 15 10 50 1 60 -14 17 -27 40 -212 63 -511 9 -109 18 -202 20 -206 3 -4 33 -13 67 -19 35 -6 74 -14 89 -17 16 -3 40 -25 68 -64 70 -95 143 -135 197 -107 35 18 84 70 110 115 10 18 28 35 39 37 60 12 191 14 416 8 196 -5 254 -9 265 -20 14 -15 19 -78 8 -108 -4 -9 -60 -52 -125 -96 -244 -163 -405 -312 -428 -396 -35 -124 -38 -358 -8 -468 18 -63 48 -122 81 -158 41 -44 90 -60 186 -60 137 1 243 52 320 156 42 57 80 64 104 20 25 -48 109 -121 171 -150 50 -23 77 -28 160 -31 89 -3 105 -1 145 20 101 52 150 169 158 378 5 151 -8 261 -38 320 -41 80 -205 225 -425 376 -55 37 -103 73 -107 79 -11 15 -9 94 2 116 10 18 28 19 676 19 l664 0 9 -22 c5 -13 16 -58 26 -100 9 -43 25 -88 35 -100 l18 -23 12 30 c6 17 21 64 32 105 20 77 37 100 72 100 43 0 69 24 91 85 19 50 27 60 46 60 23 0 24 -4 30 -95 4 -52 14 -378 24 -725 17 -641 22 -742 40 -738 16 3 22 52 39 293 21 303 33 535 46 905 28 838 37 972 61 1001 17 21 47 17 63 -8 22 -37 53 -288 72 -593 3 -60 11 -115 16 -121 5 -7 30 -15 56 -18 26 -4 55 -9 65 -12 16 -5 17 20 17 420 l0 426 -3100 0 -3100 0 0 -445z"/>
 <path d="M606 2222 c-3 -5 -10 -157 -16 -338 -16 -540 -40 -1027 -66 -1343 -31 -385 -53 -470 -116 -446 -45 17 -50 84 -74 960 -11 424 -20 634 -28 642 -8 9 -21 10 -54 1 -48 -12 -49 -14 -81 -124 -36 -124 -90 -159 -145 -93 l-26 31 0 -756 0 -756 3100 0 3100 0 0 864 c0 815 -1 865 -17 870 -10 2 -53 10 -95 17 -54 8 -79 16 -83 28 -4 9 -14 108 -22 221 -8 113 -19 209 -23 214 -22 23 -28 -19 -34 -221 -27 -924 -75 -1669 -117 -1825 -26 -97 -88 -89 -108 15 -6 28 -20 383 -32 787 -11 404 -24 738 -28 742 -4 4 -29 2 -56 -5 l-49 -12 -21 -75 c-35 -124 -63 -164 -111 -158 -39 4 -63 43 -93 150 l-27 93 -609 3 c-703 3 -696 4 -572 -79 140 -95 294 -215 368 -288 122 -120 149 -200 149 -439 0 -249 -63 -412 -184 -474 -50 -26 -194 -36 -277 -19 -84 18 -174 65 -230 121 l-51 51 -52 -49 c-93 -88 -192 -124 -336 -123 -155 1 -217 36 -277 156 -75 148 -81 510 -12 652 45 92 180 214 412 371 84 56 127 91 125 102 -3 12 -33 16 -188 23 -102 4 -237 6 -300 4 -113 -5 -115 -5 -135 -33 -46 -66 -110 -122 -153 -133 -83 -23 -170 19 -246 117 l-45 60 -88 16 c-48 9 -93 22 -99 29 -7 7 -19 99 -28 227 -16 205 -24 247 -41 219 -5 -7 -14 -199 -21 -428 -25 -767 -58 -1319 -94 -1534 -23 -136 -31 -157 -65 -157 -58 0 -71 73 -80 440 -13 591 -35 1154 -44 1163 -12 12 -87 -1 -98 -16 -5 -7 -15 -34 -22 -62 -42 -170 -117 -221 -171 -116 -10 21 -27 69 -36 107 -9 38 -21 75 -27 82 -7 9 -63 12 -218 12 l-208 0 -18 -26 c-35 -51 -97 -116 -124 -130 -40 -20 -116 -17 -165 6 -40 20 -111 88 -144 138 -12 18 -33 26 -109 39 -76 14 -95 20 -101 37 -4 12 -14 115 -22 229 -13 188 -25 247 -42 219z"/>
 </g>
<g id="layer101" fill="#f70808" stroke="none">
 <path d="M2387 2558 c-33 -24 -39 -107 -73 -1008 -23 -619 -58 -1186 -74 -1203 -4 -5 -10 99 -14 230 -4 131 -14 443 -21 693 -8 250 -15 490 -15 533 0 64 -3 80 -20 97 -30 30 -55 12 -81 -60 -12 -33 -29 -61 -38 -64 -9 -2 -30 -7 -47 -11 -44 -8 -58 -29 -77 -106 -9 -37 -22 -80 -28 -95 -10 -27 -11 -28 -21 -9 -13 23 -48 151 -48 175 0 9 -8 24 -18 33 -16 15 -49 17 -255 17 -129 0 -247 -4 -260 -9 -13 -5 -36 -29 -50 -54 -39 -65 -90 -107 -133 -107 -60 0 -101 31 -185 142 -24 31 -34 35 -104 46 -42 7 -80 14 -85 17 -4 2 -10 46 -14 97 -29 393 -56 601 -83 630 -9 10 -27 18 -40 18 -53 0 -67 -110 -83 -665 -17 -576 -48 -1204 -70 -1420 -5 -49 -10 -98 -10 -107 0 -10 -4 -18 -8 -18 -4 0 -18 342 -30 760 -13 419 -25 767 -28 775 -8 20 -42 29 -58 16 -7 -6 -23 -38 -35 -71 -21 -57 -24 -60 -62 -66 -60 -10 -77 -30 -100 -118 -11 -44 -25 -89 -31 -99 -10 -19 -11 -18 -23 10 -7 17 -21 65 -30 107 -9 42 -21 79 -26 82 -14 8 -11 -233 3 -259 29 -55 83 -63 121 -17 24 28 44 77 67 166 9 38 14 43 53 52 23 6 45 8 48 4 3 -4 14 -290 23 -637 21 -750 28 -891 50 -933 18 -35 47 -48 75 -32 70 37 101 427 158 1970 7 201 16 179 33 -81 8 -117 18 -202 25 -215 10 -16 34 -24 106 -37 66 -12 96 -22 103 -34 21 -39 111 -123 150 -143 61 -29 133 -27 181 5 39 27 79 70 107 117 l18 28 212 -2 211 -3 22 -80 c25 -96 47 -139 80 -161 20 -13 28 -14 52 -2 32 15 75 95 96 178 14 53 16 55 56 64 23 5 44 7 47 4 2 -3 11 -216 19 -474 35 -1117 33 -1080 71 -1119 23 -22 61 -19 79 8 50 77 99 702 125 1602 10 366 18 511 25 503 2 -2 11 -98 20 -213 9 -116 21 -220 27 -232 8 -17 28 -24 104 -38 l93 -17 41 -54 c76 -101 168 -146 251 -124 44 12 117 73 149 125 18 29 27 34 77 40 86 11 543 -5 543 -19 0 -6 -35 -33 -77 -61 -223 -144 -419 -316 -461 -406 -70 -146 -64 -505 11 -654 63 -126 131 -165 287 -166 144 -1 243 35 335 122 l52 49 52 -51 c96 -93 219 -134 375 -127 107 5 152 24 210 89 78 86 116 223 116 421 0 242 -27 319 -154 444 -78 77 -240 204 -369 289 -32 21 -56 43 -54 49 3 8 185 12 615 14 l610 2 7 -32 c18 -81 48 -160 71 -188 62 -72 130 -15 170 143 l16 66 46 10 c26 5 47 9 48 8 1 -1 11 -333 23 -737 12 -404 26 -759 32 -788 11 -55 37 -92 64 -92 24 0 53 35 64 77 42 157 90 900 117 1826 3 119 10 217 15 217 5 0 9 -15 9 -32 1 -86 30 -389 39 -406 8 -14 30 -22 88 -31 43 -7 86 -15 96 -17 14 -5 17 1 17 35 0 44 4 41 -90 58 l-45 9 -7 99 c-24 333 -50 554 -70 607 -21 55 -82 48 -97 -10 -16 -60 -30 -293 -41 -677 -19 -678 -64 -1472 -84 -1492 -9 -9 -16 167 -35 841 -14 486 -24 702 -32 712 -14 17 -45 18 -56 2 -4 -7 -17 -38 -29 -68 -20 -52 -23 -56 -68 -67 -64 -16 -71 -24 -89 -96 -9 -34 -23 -80 -31 -102 l-14 -40 -15 35 c-8 19 -22 68 -30 108 -9 40 -21 79 -27 87 -11 13 -108 15 -676 15 l-663 0 -15 -22 c-19 -27 -21 -108 -3 -129 6 -9 57 -46 112 -84 216 -147 375 -287 415 -365 30 -58 43 -170 38 -320 -4 -112 -9 -148 -31 -208 -52 -148 -109 -187 -266 -180 -78 3 -107 9 -156 31 -65 30 -123 81 -161 140 -19 29 -31 37 -53 37 -23 0 -36 -10 -65 -50 -73 -101 -179 -152 -316 -153 -125 0 -175 27 -222 118 -33 63 -48 132 -55 245 -5 102 6 235 27 312 24 83 176 225 420 388 66 44 124 89 130 99 17 32 12 99 -8 119 -17 17 -45 19 -271 25 -228 6 -357 4 -418 -9 -13 -2 -33 -23 -48 -49 -30 -51 -85 -102 -119 -111 -50 -12 -123 39 -186 131 -19 28 -40 45 -57 49 -16 3 -56 11 -90 17 -35 6 -63 14 -63 18 0 3 -7 94 -15 201 -26 326 -47 486 -68 513 -18 22 -51 29 -70 15z"/>
 </g>
<g id="layer102" fill="#ffffff" stroke="none">
 <path d="M0 2196 c0 -253 4 -447 9 -450 5 -3 17 -40 26 -82 9 -42 23 -90 30 -107 12 -28 13 -29 23 -10 6 10 20 55 31 99 23 88 40 108 100 118 38 6 41 9 62 66 12 33 28 65 35 71 16 13 50 4 58 -16 3 -8 15 -356 28 -775 12 -418 26 -760 30 -760 4 0 8 8 8 18 0 9 5 58 10 107 22 216 53 844 70 1420 16 555 30 665 83 665 13 0 31 -8 40 -18 27 -29 54 -237 83 -630 4 -51 10 -95 14 -97 5 -3 43 -10 85 -17 70 -11 80 -15 104 -46 84 -111 125 -142 185 -142 43 0 94 42 133 107 14 25 37 49 50 54 13 5 131 9 262 9 218 0 239 -2 254 -18 10 -10 17 -25 17 -33 0 -23 35 -152 48 -174 10 -19 11 -18 21 9 6 15 19 58 28 95 19 77 33 98 77 106 17 4 38 9 47 11 9 3 26 31 38 64 26 72 51 90 81 60 17 -17 20 -33 20 -97 0 -43 7 -283 15 -533 7 -250 17 -562 21 -693 4 -131 10 -235 14 -230 16 17 51 584 74 1203 34 901 40 984 73 1008 19 14 52 7 70 -15 21 -27 42 -187 68 -513 8 -107 15 -198 15 -201 0 -4 28 -12 63 -18 34 -6 74 -14 90 -17 17 -4 38 -21 57 -49 63 -92 136 -143 186 -131 34 9 89 60 119 111 15 26 35 47 48 49 61 13 190 15 418 9 226 -6 254 -8 271 -25 20 -20 25 -87 8 -119 -6 -10 -64 -55 -130 -99 -244 -163 -396 -305 -420 -388 -21 -77 -32 -210 -27 -312 7 -113 22 -182 55 -245 47 -91 97 -118 222 -118 137 1 243 52 316 153 29 40 42 50 65 50 22 0 34 -8 53 -37 38 -59 96 -110 161 -140 49 -22 78 -28 156 -31 157 -7 214 32 266 180 47 132 43 430 -7 528 -40 78 -199 218 -415 365 -55 38 -106 75 -112 84 -18 21 -16 102 3 129 l15 22 663 0 c568 0 665 -2 676 -15 6 -8 18 -47 27 -87 8 -40 22 -89 30 -108 l15 -35 14 40 c8 22 22 68 31 102 18 72 25 80 89 96 45 11 48 15 68 67 12 30 25 61 29 68 11 16 42 15 56 -2 8 -10 18 -226 32 -712 19 -674 26 -850 35 -841 20 20 65 814 84 1492 11 384 25 617 41 677 15 58 76 65 97 10 20 -53 46 -273 70 -607 l7 -99 35 -7 c19 -4 50 -9 68 -13 l32 -5 0 419 0 420 -3100 0 -3100 0 0 -444z"/>
 <path d="M607 2060 c-57 -1543 -88 -1933 -158 -1970 -28 -16 -57 -3 -75 32 -22 42 -29 183 -50 933 -9 347 -20 633 -23 637 -3 4 -25 2 -48 -4 -39 -9 -44 -14 -53 -52 -23 -89 -43 -138 -67 -166 -37 -45 -90 -38 -121 15 -9 15 -11 -161 -12 -732 l0 -753 3100 0 3100 0 0 859 c0 810 -1 860 -17 865 -10 2 -53 10 -96 17 -58 9 -80 17 -88 31 -9 17 -38 320 -39 406 0 17 -4 32 -9 32 -5 0 -12 -98 -15 -217 -27 -926 -75 -1669 -117 -1826 -29 -107 -106 -98 -128 15 -6 29 -20 384 -32 788 -12 404 -22 736 -23 737 -1 1 -22 -3 -48 -8 l-46 -10 -16 -66 c-40 -158 -108 -215 -170 -143 -23 28 -53 107 -71 188 l-7 32 -610 -2 c-430 -2 -612 -6 -615 -14 -2 -6 22 -28 54 -49 129 -85 291 -212 369 -289 127 -125 154 -202 154 -444 0 -198 -38 -335 -116 -421 -58 -65 -103 -84 -210 -89 -156 -7 -279 34 -375 127 l-52 51 -52 -49 c-92 -87 -191 -123 -335 -122 -156 1 -224 40 -287 166 -75 149 -81 508 -11 654 42 90 238 262 461 406 42 28 77 55 77 61 0 14 -457 30 -543 19 -50 -6 -59 -11 -77 -40 -32 -52 -105 -113 -149 -125 -83 -22 -175 23 -251 124 l-41 54 -93 17 c-76 14 -96 21 -104 38 -6 12 -18 116 -27 232 -9 115 -18 211 -20 213 -7 8 -15 -137 -25 -503 -26 -900 -75 -1525 -125 -1602 -18 -27 -56 -30 -79 -8 -38 39 -36 2 -71 1119 -8 258 -17 471 -19 474 -3 3 -24 1 -47 -4 -40 -9 -42 -11 -56 -64 -21 -83 -64 -163 -96 -178 -55 -26 -95 23 -132 163 l-22 80 -211 3 -212 2 -18 -28 c-105 -171 -246 -190 -379 -49 -27 29 -54 60 -59 70 -7 12 -37 22 -103 34 -72 13 -96 21 -106 37 -7 13 -17 98 -25 215 -17 260 -26 282 -33 81z"/>
 </g>

</svg>